<?xml version="1.0" encoding="UTF-8"?><svg xmlns="http://www.w3.org/2000/svg" viewBox="0 0 500 500"><defs><style>.c1{fill:#fee673;}.c2{fill:#fff;}.c3{fill:#1d3702;}</style></defs><path class="c3" d="M401.35,150C401.35,11.93,585.71,0,450.37,0H0V500H450.37c135.35,0-49.01-211.93-49.01-350h0Z"/><g id="Layers"><path class="c2" d="M313.73,191.89h-93.5c-30.23,0-54.82,24.59-54.82,54.82v93.48c0,30.23,24.59,54.82,54.82,54.82h93.5c30.22,0,54.81-24.6,54.81-54.82v-93.48c0-30.23-24.59-54.82-54.81-54.82Z"/><g><path class="c1" d="M227.67,121.46h-93.5c-21.61,0-39.19,17.58-39.19,39.19v93.48c0,21.62,17.58,39.2,39.19,39.2h93.5c21.61,0,39.18-17.58,39.18-39.2v-93.48c0-21.61-17.58-39.19-39.18-39.19Z"/><path class="c3" d="M227.67,105.83h-93.5c-30.23,0-54.82,24.59-54.82,54.82v93.48c0,30.23,24.59,54.82,54.82,54.82h93.5c30.22,0,54.81-24.6,54.81-54.82v-93.48c0-30.23-24.59-54.82-54.81-54.82Zm39.18,148.3c0,21.62-17.58,39.2-39.18,39.2h-93.5c-21.61,0-39.19-17.58-39.19-39.2v-93.48c0-21.61,17.58-39.19,39.19-39.19h93.5c21.61,0,39.18,17.58,39.18,39.19v93.48Z"/></g></g></svg>