<?xml version="1.0" encoding="UTF-8"?><svg xmlns="http://www.w3.org/2000/svg" viewBox="0 0 2500 500"><path class="c4" d="M2450.37,500H49.63c-135.35,0,49.01-11.93,49.01-150h0C98.65,211.93-85.71,0,49.63,0H2450.37c135.35,0-49.01,11.93-49.01,150h0c0,138.07,184.36,350,49.01,350Z"/><rect class="c1" x="2019.27" y="148" width="15.62" height="211.18"/><g><path class="c2" d="M482.33,291.53l.75-.75c2.25,.75,4.31,1.12,6.56,1.12,12.38,0,15.75-15.38,15.75-72.19v-46.88h85.88v132.75h-16.31v-117.75h-53.25v35.62c0,65.25-6.38,83.44-29.25,83.44-3.38,0-6.75-.38-10.12-1.31v-14.06Z"/><path class="c3" d="M618.83,285.34c0-20.44,16.31-30.94,56.81-36v-6.38c0-13.69-5.06-19.31-17.62-19.31-10.5,0-23.06,5.06-31.5,12.56h-.75l-1.88-14.81c9.94-6.56,24.56-11.25,35.62-11.25,21,0,31.5,10.12,31.5,29.81v65.62h-12.75l-1.5-12.75c-12,12.38-20.25,16.5-32.06,16.5-15.94,0-25.88-9-25.88-24Zm56.81-2.62v-22.88c-33.38,5.06-41.44,11.81-41.44,24.38,0,8.25,4.5,12.56,13.12,12.56s17.44-4.5,28.31-14.06Z"/><path class="c3" d="M860.89,244.66v60.94h-15.38v-56.81c0-16.69-6-24.38-16.12-24.38s-20.44,6.94-29.62,16.69c.19,1.12,.19,2.44,.19,3.56v60.94h-15.38v-56.81c0-16.69-6-24.38-16.12-24.38s-20.44,6.75-29.44,16.5v64.69h-15.38v-91.69h13.31l.94,14.25c9.56-10.5,21.19-18,34.5-18,12.56,0,21.75,6.75,25.5,19.31v-.38c9.75-11.06,21.75-18.94,35.44-18.94,16.88,0,27.56,12.19,27.56,34.5Z"/><path class="c3" d="M954.82,213.91h15.38v91.69h-13.31l-1.12-16.69c-10.12,13.12-21.56,20.44-34.31,20.44-17.06,0-27.94-12-27.94-35.44v-60h15.38v57.38c0,16.31,6,23.81,16.31,23.81,9.75,0,20.25-7.12,29.62-19.5v-61.69Z"/><path class="c2" d="M1065.07,213.91h15.38v91.69h-15.38v-40.12h-46.88v40.12h-15.38v-91.69h15.38v38.06h46.88v-38.06Z"/><path class="c3" d="M1174.38,213.91h15.38v91.69h-13.31l-1.12-16.69c-10.12,13.12-21.56,20.44-34.31,20.44-17.06,0-27.94-12-27.94-35.44v-60h15.38v57.38c0,16.31,6,23.81,16.31,23.81,9.75,0,20.25-7.12,29.62-19.5v-61.69Z"/><path class="c2" d="M1214.69,300.91l2.06-15h.75c9.19,6.19,19.88,9.94,31.69,9.94,13.12,0,20.25-5.44,20.44-15.94,.19-9.75-7.12-14.44-21.38-14.44h-19.5v-13.31h17.06c12.56,0,21-5.44,21-15.75,0-8.62-5.81-12.94-17.25-12.94s-21.75,3.94-31.5,10.69h-.75l-2.06-14.25c10.31-5.62,24.19-9.75,35.62-9.75,19.88,0,31.31,8.62,31.31,23.62,0,10.31-6.19,19.31-15.56,23.25v.38c11.62,3.19,18.56,11.81,18.38,22.69-.38,18.19-14.06,29.25-36.56,29.25-10.88,0-22.69-3.19-33.75-8.44Z"/><path class="c3" d="M1371.82,213.91h15.38v91.69h-13.31l-1.12-16.69c-10.12,13.12-21.56,20.44-34.31,20.44-17.06,0-27.94-12-27.94-35.44v-60h15.38v57.38c0,16.31,6,23.81,16.31,23.81,9.75,0,20.25-7.12,29.62-19.5v-61.69Z"/><path class="c3" d="M1504.75,258.91c0,28.88-18.75,50.44-43.69,50.44-8.62,0-18-3-25.88-8.06v45.56h-15.38V213.91h13.31l.56,9.75c9.75-8.81,20.25-13.5,30.94-13.5,24.19,0,40.12,19.31,40.12,48.75Zm-16.12,0c0-21.56-10.31-34.5-27.56-34.5-9,0-17.81,3.75-25.88,10.88v53.25c8.25,4.69,15.19,6.75,23.44,6.75,18.19,0,30-14.44,30-36.38Z"/><path class="c3" d="M1523.69,285.34c0-20.44,16.31-30.94,56.81-36v-6.38c0-13.69-5.06-19.31-17.62-19.31-10.5,0-23.06,5.06-31.5,12.56h-.75l-1.88-14.81c9.94-6.56,24.56-11.25,35.62-11.25,21,0,31.5,10.12,31.5,29.81v65.62h-12.75l-1.5-12.75c-12,12.38-20.25,16.5-32.06,16.5-15.94,0-25.88-9-25.88-24Zm56.81-2.62v-22.88c-33.38,5.06-41.44,11.81-41.44,24.38,0,8.25,4.5,12.56,13.12,12.56s17.44-4.5,28.31-14.06Z"/><path class="c2" d="M1692.81,213.91h13.31v91.69h-15v-50.06c0-6.19,.19-13.88,.75-20.06h-.38c-4.5,6.56-9.56,13.88-14.06,20.06l-35.62,50.06h-13.31v-91.69h15v49.88c0,6.19-.19,13.88-.38,20.06h.38c4.5-6.56,9.19-13.88,13.69-20.06l35.62-49.88Zm-52.31-41.06l1.5-1.31h10.69c2.06,9.75,7.5,13.5,15.19,13.5s13.31-3.75,15.19-13.5h10.88l1.31,1.31c-.94,15.75-12.56,24.19-27.38,24.19s-26.25-8.44-27.38-24.19Z"/><path class="c2" d="M1781.87,305.59v-91.69h15.56l31.88,56.62h.38l31.88-56.62h15.56v91.69h-14.62v-44.25c0-7.69,0-15.56,.19-24.19h-.38c-3.56,6.94-7.12,13.12-10.5,19.12l-21,37.12h-2.62l-21-37.12c-3.38-6-6.94-12.19-10.5-19.12h-.38c.19,8.62,.19,16.5,.19,24.19v44.25h-14.62Z"/><path class="c3" d="M1918.56,262.47v.94c0,20.06,12.56,32.25,29.25,32.25,10.12,0,22.31-3,31.69-12h.75l1.69,15c-9.75,6.56-22.31,10.69-34.69,10.69-27.56,0-44.81-19.69-44.81-49.12s17.81-50.06,43.69-50.06,41.25,18.19,41.25,48.94c0,1.12,0,1.88-.19,3.38h-68.62Zm.38-11.81l52.31,.19c-.94-17.06-10.5-27.19-25.12-27.19s-25.12,10.31-27.19,27Z"/></g><g><path class="c4" d="M401.35,150C401.35,11.93,585.71,0,450.37,0H0V500H450.37c135.35,0-49.01-211.93-49.01-350h0Z"/><g><path class="c2" d="M313.67,191.82h-93.5c-30.23,0-54.82,24.59-54.82,54.82v93.48c0,30.23,24.59,54.82,54.82,54.82h93.5c30.22,0,54.81-24.6,54.81-54.82v-93.48c0-30.23-24.59-54.82-54.81-54.82Z"/><g><path class="c3" d="M227.61,121.39h-93.5c-21.61,0-39.19,17.58-39.19,39.19v93.48c0,21.62,17.58,39.2,39.19,39.2h93.5c21.61,0,39.18-17.58,39.18-39.2v-93.48c0-21.61-17.58-39.19-39.18-39.19Z"/><path class="c4" d="M227.61,105.76h-93.5c-30.23,0-54.82,24.59-54.82,54.82v93.48c0,30.23,24.59,54.82,54.82,54.82h93.5c30.22,0,54.81-24.6,54.81-54.82v-93.48c0-30.23-24.59-54.82-54.81-54.82Zm39.18,148.3c0,21.62-17.58,39.2-39.18,39.2h-93.5c-21.61,0-39.19-17.58-39.19-39.2v-93.48c0-21.61,17.58-39.19,39.19-39.19h93.5c21.61,0,39.18,17.58,39.18,39.19v93.48Z"/></g></g></g></svg>